<svg xmlns="http://www.w3.org/2000/svg" viewBox="0 0 2133 1422"><filter id="b"><feGaussianBlur stdDeviation="12" /></filter><path d="M0 0h2133v1422H0z" fill="#828e91" /><g filter="url(#b)" transform="scale(8.332031) translate(0.5 0.5)"><g transform="translate(152.296276 154.177081) rotate(174.403807) scale(251.369517 40.765327)"><ellipse fill="#000" fill-opacity=".501961" cx="0" cy="0" rx="1" ry="1" /></g><g transform="translate(97.590559 22.236493) rotate(245.702284) scale(68.013484 255.000000)"><ellipse fill="#edfbff" fill-opacity=".501961" cx="0" cy="0" rx="1" ry="1" /></g><g transform="translate(201.517358 101.515150) rotate(75.432747) scale(81.187905 26.917385)"><ellipse fill="#0c1a0d" fill-opacity=".501961" cx="0" cy="0" rx="1" ry="1" /></g><path fill="#cfddf7" fill-opacity=".501961" d="M165.343159 137.302131 113.120649 131.731 43.515336-6.955014 139.039838-16z" /><g transform="translate(255.000000 57.975203) rotate(68.821057) scale(90.863958 33.022265)"><ellipse fill="#cfdbfc" fill-opacity=".501961" cx="0" cy="0" rx="1" ry="1" /></g><g transform="translate(106.358793 166.253840) rotate(271.492767) scale(33.087351 255.000000)"><ellipse fill="#132500" fill-opacity=".501961" cx="0" cy="0" rx="1" ry="1" /></g><g transform="translate(84.782492 112.745135) rotate(12.723241) scale(22.924510 13.998685)"><ellipse fill="#06040d" fill-opacity=".501961" cx="0" cy="0" rx="1" ry="1" /></g><path d="M0 0h2133v1422H0z" fill="#d1e6fb" /></g></svg>