<svg xmlns="http://www.w3.org/2000/svg" viewBox="0 0 2133 1422"><filter id="b"><feGaussianBlur stdDeviation="12" /></filter><path d="M0 0h2133v1422H0z" fill="#5c6c79" /><g filter="url(#b)" transform="scale(8.332031) translate(0.5 0.5)"><g transform="translate(116.031358 169.000000) rotate(184.874996) scale(243.983065 22.994409)"><ellipse fill="#350000" fill-opacity=".501961" cx="0" cy="0" rx="1" ry="1" /></g><g transform="translate(135.662558 45.966065) rotate(80.621371) scale(75.934672 102.900385)"><ellipse fill="#789ab2" fill-opacity=".501961" cx="0" cy="0" rx="1" ry="1" /></g><g transform="translate(0.000000 33.432956) rotate(190.083290) scale(53.461270 15.635566)"><ellipse fill="#1d2116" fill-opacity=".501961" cx="0" cy="0" rx="1" ry="1" /></g><path d="M0 0h2133v1422H0z" fill="#68330e" /><g transform="translate(248.859674 143.536201) rotate(317.868214) scale(156.806714 29.725711)"><ellipse fill="#1a242b" fill-opacity=".501961" cx="0" cy="0" rx="1" ry="1" /></g><g transform="translate(46.798993 156.438155) rotate(191.533832) scale(156.712451 21.940143)"><ellipse fill="#502c00" fill-opacity=".501961" cx="0" cy="0" rx="1" ry="1" /></g><g transform="translate(144.923943 23.686620) rotate(127.867624) scale(35.366638 118.359397)"><ellipse fill="#7998b4" fill-opacity=".501961" cx="0" cy="0" rx="1" ry="1" /></g><path d="M0 0h2133v1422H0z" fill="#515450" /></g></svg>