<svg xmlns="http://www.w3.org/2000/svg" viewBox="0 0 3968 2976"><filter id="b"><feGaussianBlur stdDeviation="12" /></filter><path d="M0 0h3968v2976H0z" fill="#6d91ae" /><g filter="url(#b)" transform="scale(15.500000) translate(0.5 0.5)"><g transform="translate(44.447169 157.807317) rotate(343.160507) scale(167.320985 43.552325)"><ellipse fill="#151d1a" fill-opacity=".501961" cx="0" cy="0" rx="1" ry="1" /></g><ellipse fill="#89e5ff" fill-opacity=".501961" cx="110" cy="48" rx="255" ry="39" /><g transform="translate(209.601567 181.100487) rotate(89.776196) scale(38.988412 113.888162)"><ellipse fill="#ffc26d" fill-opacity=".501961" cx="0" cy="0" rx="1" ry="1" /></g><g transform="translate(129.086523 0.000000) rotate(90.045921) scale(47.231494 168.202483)"><ellipse fill="#3487ff" fill-opacity=".501961" cx="0" cy="0" rx="1" ry="1" /></g><path fill="#8f6233" fill-opacity=".501961" d="M107 161l164-23-2-46z" /><g transform="translate(103.889851 66.857474) rotate(180.198856) scale(255.000000 14.201489)"><ellipse fill="#c5f7ff" fill-opacity=".501961" cx="0" cy="0" rx="1" ry="1" /></g><g transform="translate(43.112579 191.000000) rotate(-3.483610) scale(51.568473 29.299743)"><ellipse fill="#372705" fill-opacity=".501961" cx="0" cy="0" rx="1" ry="1" /></g><ellipse fill="#23639d" fill-opacity=".501961" cx="44" cy="113" rx="179" ry="25" /></g></svg>