<svg xmlns="http://www.w3.org/2000/svg" viewBox="0 0 2048 1536"><filter id="b"><feGaussianBlur stdDeviation="12" /></filter><path d="M0 0h2048v1536H0z" fill="#7f8589" /><g filter="url(#b)" transform="scale(8.000000) translate(0.5 0.5)"><g transform="translate(192 42) rotate(193) scale(193 74)"><path d="M0 0h2048v1536H0z" fill="#fff" /></g><g transform="translate(29.429649 116.430508) rotate(1.417241) scale(182.401903 55.122440)"><ellipse fill="#00000b" fill-opacity=".501961" cx="0" cy="0" rx="1" ry="1" /></g><g transform="translate(182.362118 187.867451) rotate(354.025149) scale(158.213000 28.179341)"><ellipse fill="#fbfbd9" fill-opacity=".501961" cx="0" cy="0" rx="1" ry="1" /></g><ellipse fill="#fff" fill-opacity=".501961" cx="218" cy="47" rx="79" ry="36" /><path fill="#4d5052" fill-opacity=".501961" d="M106 67l108 90 57-55z" /><ellipse fill="#fff" fill-opacity=".501961" cx="209" cy="50" rx="60" ry="30" /><g transform="translate(54.871422 93.529584) rotate(278.186307) scale(21.713440 79.172280)"><ellipse fill="#1b1c17" fill-opacity=".501961" cx="0" cy="0" rx="1" ry="1" /></g><g transform="translate(238.772313 169.190035) rotate(148.594681) scale(79.497511 23.780706)"><ellipse fill="#dadac8" fill-opacity=".501961" cx="0" cy="0" rx="1" ry="1" /></g></g></svg>