<svg xmlns="http://www.w3.org/2000/svg" viewBox="0 0 2133 1452"><filter id="b"><feGaussianBlur stdDeviation="12" /></filter><path d="M0 0h2133v1452H0z" fill="#0f2f3c" /><g filter="url(#b)" transform="scale(8.332031) translate(0.5 0.5)"><g transform="translate(122.829875 83.245136) rotate(179.907093) scale(154.350432 10.827707)"><ellipse fill="#7f7d7c" fill-opacity=".501961" cx="0" cy="0" rx="1" ry="1" /></g><g transform="translate(112.456733 144.035239) rotate(451.339741) scale(44.643286 255.000000)"><ellipse fill="#00070e" fill-opacity=".501961" cx="0" cy="0" rx="1" ry="1" /></g><g transform="translate(175 37) rotate(364) scale(251 87)"><path d="M0 0h2133v1452H0z" fill="#124560" /></g><ellipse fill="#8a7263" fill-opacity=".501961" cx="61" cy="87" rx="105" ry="5" /><g transform="translate(153.897277 113.669957) rotate(92.569946) scale(20.722879 107.909045)"><ellipse fill="#002939" fill-opacity=".501961" cx="0" cy="0" rx="1" ry="1" /></g><g transform="translate(115.952857 161.122836) rotate(93.923200) scale(41.702783 255.000000)"><ellipse fill="#00141d" fill-opacity=".501961" cx="0" cy="0" rx="1" ry="1" /></g><path d="M0 0h2133v1452H0z" fill="#324f5f" /><g transform="translate(28 27) rotate(176) scale(119 70)"><path d="M0 0h2133v1452H0z" fill="#023043" /></g></g></svg>