<svg xmlns="http://www.w3.org/2000/svg" viewBox="0 0 1328 747"><filter id="b"><feGaussianBlur stdDeviation="12" /></filter><path d="M0 0h1328v747H0z" fill="#64615e" /><g filter="url(#b)" transform="scale(5.187500) translate(0.5 0.5)"><g transform="translate(203.469089 85.195992) rotate(276.372286) scale(37.007775 79.241554)"><ellipse fill="#fffccc" fill-opacity=".501961" cx="0" cy="0" rx="1" ry="1" /></g><g transform="translate(98.355030 143.000000) rotate(269.034932) scale(33.925799 107.702746)"><ellipse fill="#000" fill-opacity=".501961" cx="0" cy="0" rx="1" ry="1" /></g><g transform="translate(46.177095 17.763897) rotate(155.539479) scale(255.000000 40.507101)"><ellipse fill="#041c3e" fill-opacity=".501961" cx="0" cy="0" rx="1" ry="1" /></g><g transform="translate(119.409870 73.895890) rotate(243.721839) scale(18.653414 101.229648)"><ellipse fill="#9a9294" fill-opacity=".501961" cx="0" cy="0" rx="1" ry="1" /></g><g transform="translate(124.059268 135.237436) rotate(183.733789) scale(53.628268 30.563012)"><ellipse fill="#000" fill-opacity=".501961" cx="0" cy="0" rx="1" ry="1" /></g><path d="M0 0h1328v747H0z" fill="#ffe790" /><g transform="translate(129.500145 136.490409) rotate(359.740499) scale(237.324153 5.322238)"><ellipse fill="#000" fill-opacity=".501961" cx="0" cy="0" rx="1" ry="1" /></g><g transform="translate(187.414314 44.864478) rotate(267.226025) scale(23.556621 134.439091)"><ellipse fill="#6b7289" fill-opacity=".501961" cx="0" cy="0" rx="1" ry="1" /></g></g></svg>