<svg xmlns="http://www.w3.org/2000/svg" viewBox="0 0 2133 1422"><filter id="b"><feGaussianBlur stdDeviation="12" /></filter><path d="M0 0h2133v1422H0z" fill="#594d39" /><g filter="url(#b)" transform="scale(8.332031) translate(0.5 0.5)"><g transform="translate(236.831756 119.788279) rotate(91.420276) scale(35.865304 150.622689)"><ellipse fill="#fff3cd" fill-opacity=".501961" cx="0" cy="0" rx="1" ry="1" /></g><g transform="translate(69.534795 36.853072) rotate(173.193374) scale(154.087438 58.653487)"><ellipse fill="#000" fill-opacity=".501961" cx="0" cy="0" rx="1" ry="1" /></g><g transform="translate(243.465116 125.725471) rotate(345.201410) scale(28.075427 38.331121)"><ellipse fill="#fff3dc" fill-opacity=".501961" cx="0" cy="0" rx="1" ry="1" /></g><ellipse fill="#a7967b" fill-opacity=".501961" cx="103" cy="115" rx="137" ry="18" /><g transform="translate(37.719990 37.145851) rotate(84.038832) scale(45.604222 138.254934)"><ellipse fill="#000" fill-opacity=".501961" cx="0" cy="0" rx="1" ry="1" /></g><ellipse fill="#301f07" fill-opacity=".501961" cx="35" cy="148" rx="154" ry="13" /><g transform="translate(219.741336 84.264189) rotate(86.789199) scale(10.947450 52.215533)"><ellipse fill="#c48e53" fill-opacity=".501961" cx="0" cy="0" rx="1" ry="1" /></g><path d="M0 0h2133v1422H0z" fill="#8d795b" /></g></svg>