<svg xmlns="http://www.w3.org/2000/svg" viewBox="0 0 2048 1536"><filter id="b"><feGaussianBlur stdDeviation="12" /></filter><path d="M0 0h2048v1536H0z" fill="#7f8589" /><g filter="url(#b)" transform="scale(8.000000) translate(0.5 0.5)"><g transform="translate(195.586097 38.890144) rotate(193.429166) scale(110.816788 42.938099)"><ellipse fill="#fff" fill-opacity=".501961" cx="0" cy="0" rx="1" ry="1" /></g><g transform="translate(71.575612 116.693233) rotate(182.808260) scale(138.952627 51.826323)"><ellipse fill="#000009" fill-opacity=".501961" cx="0" cy="0" rx="1" ry="1" /></g><g transform="translate(205.648425 178.058430) rotate(175.789214) scale(147.094841 19.711542)"><ellipse fill="#fefddb" fill-opacity=".501961" cx="0" cy="0" rx="1" ry="1" /></g><g transform="translate(221.527065 51.529363) rotate(9.093706) scale(82.873639 35.505276)"><ellipse fill="#fff" fill-opacity=".501961" cx="0" cy="0" rx="1" ry="1" /></g><ellipse fill="#464d54" fill-opacity=".501961" cx="202" cy="117" rx="36" ry="36" /><g transform="translate(209.469610 47.176673) rotate(75.729150) scale(28.061979 60.539198)"><ellipse fill="#fff" fill-opacity=".501961" cx="0" cy="0" rx="1" ry="1" /></g><ellipse fill="#1a1c18" fill-opacity=".501961" cx="50" cy="91" rx="69" ry="24" /><g transform="translate(101.876379 25.306361) rotate(231.331412) scale(35.606632 46.326687)"><ellipse fill="#97a8b0" fill-opacity=".501961" cx="0" cy="0" rx="1" ry="1" /></g></g></svg>